<?xml version="1.0" encoding="utf-8"?>
<!-- Generator: Adobe Illustrator 18.0.0, SVG Export Plug-In . SVG Version: 6.00 Build 0)  -->
<!DOCTYPE svg PUBLIC "-//W3C//DTD SVG 1.1//EN" "http://www.w3.org/Graphics/SVG/1.1/DTD/svg11.dtd">
<svg xmlns="http://www.w3.org/2000/svg" xmlns:xlink="http://www.w3.org/1999/xlink" version="1.1" id="Слой_2" x="0px" y="0px" viewBox="0 265 1590 525" enable-background="new 0 265 1590 525" xml:space="preserve">
<path fill="#000000" stroke="" stroke-width="2" stroke-miterlimit="10" d="M1557.8,590.9c-4.1-9.9-10.5-49-45.3-79  c-83.2-71.7-53.9-55.5-97.9-104.5c-56-62.3-135-107.9-183.6-120.2c-48.6-12.3-130.9-33-275.7,21.5  C810.4,363,658.8,489.8,600.4,520.2c0,0-39.5,18.2-81.5,30.5c-42,12.3-175.3,33.8-205.8,35.4s-137.5,33.8-170.4,42.8  c-33,9-74.1,40.3-101.2,55.9c-27.3,15.6-38.8,35.4-38.8,35.4s21.5,3.3,37.9,0s74.1-31.3,74.1-31.3s-5.7,10.7,14,4.9  c11.1-3.2,42-14.8,42-14.8s-8.2,9.9,8.2,8.2c6.5-0.7,49.4-10.7,49.4-10.7s-5.7,8.2,12.3,9c10.1,0.4,40.3-5.7,40.3-5.7  s1.6,9.9,9.9,10.7c8.2,0.8,51-12.3,51-12.3s-14.8,13.1,15.6,13.1c14.3,0,46.1-13.1,46.1-13.1s-1.6,13.1,18.9,9.9  c20.5-3.3,42-15.6,42-15.6s-12.3,17.2,29.7,4.9c30.1-8.9,39.5-13.1,39.5-13.1s-2.5,16.4,42-1.6c24.1-9.8,24.6-11.5,24.6-11.5  s3.3,18.2,38.7,0c16.7-8.6,33-20.5,33-20.5l-1.6,9c0,0,11.5,3.3,33.8-14c22.3-17.2,27.2-21.5,27.2-21.5l6.6,15.6  c0,0,14.4,3.7,44.9-26.5c8.7-8.6,32.5-24.5,32.5-22.1c0,2.5-0.8,25.6,4.1,28c4.9,2.5,27.2-8.2,27.2-8.2l9.9,7.4  c0,0-4.1,9.9-7.4,18.2s-6.6,50.2-9.9,88.1c-3.3,37.9,28,62.5,69.2,75.8c22.7,7.3,41.2,2.8,52.5-4.5c0.4,0,0.7,0,1.1,0  c7.8,0,25.4-2.5,21.9,9.8c6.1-4.4,0.4-12.5-4.9-13.6c-3.4-0.8-7.2-1.2-10.7-2.1c-0.1,0,0.7-0.7,0.5-0.7c1.7-1.9,1.3-1.9,2.3-3.7  c0.5,0,1.1,0,1.6,0c2.7,0.3,5.6,1.5,8.2,2.1c1.6,0.5,5,0.7,6.1,1.6c-0.5,0.8-1.3,1.5-2.3,2c1.5-0.1,4.1,0.5,5.3-0.4  c2.1-1.7-3.6-7.6-5.3-7.8c2.1-0.7,2.4-0.7,4-2.1c2.9-2.5-2.3-4.9-4.9-6.1c-3.8-1.6-9.9-2.6-15.4-2.4c-0.3-0.3-0.7-0.7-0.9-0.9  c3.2-0.9,6.4-1.7,9.3-2.9c-2.8-1.5-8.1-0.4-11.1,0c-0.5,0-0.9,0.1-1.5,0.3c-9.7-7.4-24-13.9-25.2-21.2c-1.6-9.9,12.3-26.4,19.7-46.9  c7.4-20.5,10.7-39.5,10.7-39.5s23.9,37.1,36.2,49.4c12.3,12.3,46,33,65.7,39.6c14.4,4.8,48.9,3.3,63.1-9.8c1.6,3.2,2.1,6.8,3.7,10.2  c0.1-3.4-0.3-8-1.5-12.5c3.3-3.3,6.5-6.8,9.4-10.3c0.4,0.4,0.8,0.9,1.2,1.3c2.9,3.6,4.8,6.8,4.8,11.7c0,4.1,2.5,6.9-1.5,13.1  c6-3.6,6.6-20.3,4.8-26.2c-0.7-2.4-2.1-4.8-3.8-7c1.1-1.6,2-3.2,2.8-4.6c7.8,3.8,12.6,11,12.6,23.1c1.1-8.7,2.9-15.5-2.7-23.6  c-1.9-2.7-4.2-5.2-6.9-7c0.7-2.4,0.8-4.6,0.5-6.5c10.1,1.2,18.9,11.8,19.1,23.5c1.6-2.7,1.3-12.7,0.7-16.4  c-0.9-4.8-4.4-8.5-8.3-11.3c-4.6-3.3-10.3-4-15.6-3c-2.1-1.9-5-3-8.2-3.7c-12.3-2.5-33-8.2-40.3-14c-7.4-5.8-35.4-61-35.4-61  l31.3-11.5c0,0,18.2,3.3,32.1,0c14-3.3,22.3-10.7,22.3-10.7s7.4-0.8,22.3-5.7c14.8-4.9,23.9-18.2,23.9-18.2s0,0,6.6,4.9  c6.6,4.9,17.2-3.3,17.2-3.3l7.4,14.8c0,0-0.8,12.3,2.5,24.6s24.6,13.1,24.6,13.1s-0.8,23.1,0.8,33s19.7,11.5,24.6,17.2  c4.9,5.8,14.8,7.4,27.2,15.6c12.3,8.2,60.9,26.4,73.3,34.6c12.3,8.2,11.5,23.1,28.8,42.8c7.4,8.6,18.5,11.9,28.8,11  c0.3,0,0.5,0.1,0.8,0.1c3.3,0.5,6.5,0.9,9.9,1.2c6.9,0.7,13.9,0.9,20.9,0.3c7-0.5,14.7-2.9,21.3-5.8c3.6-1.5,6-4,8.7-6.5  c2.1-1.9,3.7-4.6,5.8-6.5c3-2.7,5.7,1.2,6.9,4.1c1.6,3.6,0.5,7.4,0.1,11c3.8-1.2,3.3-8.5,2.8-11.5c-0.7-4.4-2.1-8.6-7-9.5  c6.2-6.1,17.9,5.6,13.5,11.8c4.5-6-2-13-5.2-17.5c-3.3-4.6-10.2-9.5-15.8-11.5c-6.4-2.3-12.5,3.7-17.6,6.8c-6,3.3-10.9,2.5-17.8,3.7  c-0.4,0.1-0.8,0.1-1.2,0.3c-1.6-8.7-4-15.9-5.8-22.5c-3.3-12.3-26.4-61.7-39.5-88.1s-2.5-22.3,13.1-18.9c15.6,3.3,32.1,23.8,42,31.3  c9.9,7.4,25.6,4.9,38.7,8.2c13.1,3.3,22.3,12.3,28.8,20.5c6.6,8.2,7.4,14.7,14,18.8c6.6,4.1,19.3,7.2,23.9-3.2  C1592.1,658.3,1561.9,600.8,1557.8,590.9z M974.5,757.1c2.8-0.1,8.3,0.1,10.5,1.9c-1.2,1.9-2.5,1.3-4.9,2.4c-2-0.3-7.3-0.9-8-1.1  c0.4-1.7,0.3-1.6-0.3-2.9C972.7,757.4,973.6,757.3,974.5,757.1z"/>
</svg>
